<svg width="26" height="26" viewBox="0 0 26 26" fill="none" xmlns="http://www.w3.org/2000/svg">
<path d="M9.0625 6.3125C9.40104 6.3125 9.66927 6.41146 9.86719 6.60938C10.0651 6.80208 10.1641 7.04948 10.1641 7.35156C10.1641 7.64844 10.0651 7.89323 9.86719 8.08594C9.66927 8.27865 9.40104 8.375 9.0625 8.375C8.72396 8.375 8.45573 8.28125 8.25781 8.09375C8.0599 7.90104 7.96094 7.65365 7.96094 7.35156C7.96094 7.04948 8.0599 6.80208 8.25781 6.60938C8.45573 6.41146 8.72396 6.3125 9.0625 6.3125ZM8.08594 18V9.54688H10.0312V18H8.08594ZM16.3906 9.39062C17.25 9.39062 17.9115 9.64062 18.375 10.1406C18.8438 10.6354 19.0781 11.4375 19.0781 12.5469V18H17.1328V12.5312C17.1328 11.9688 17.0104 11.5703 16.7656 11.3359C16.526 11.0964 16.1562 10.9766 15.6562 10.9766C15.2917 10.9766 14.9661 11.0651 14.6797 11.2422C14.3932 11.4193 14.1641 11.6667 13.9922 11.9844V18H12.0469V9.54688H13.875L13.9375 10.5234C14.2396 10.1589 14.599 9.88021 15.0156 9.6875C15.4323 9.48958 15.8906 9.39062 16.3906 9.39062Z" fill="#276ACF"/>
<rect x="0.5" y="0.5" width="25" height="25" rx="5.5" stroke="#305CCE"/>
</svg>
