<?xml version="1.0" standalone="no"?>
<!DOCTYPE svg PUBLIC "-//W3C//DTD SVG 20010904//EN"
 "http://www.w3.org/TR/2001/REC-SVG-20010904/DTD/svg10.dtd">
<svg version="1.0" xmlns="http://www.w3.org/2000/svg"
 width="400.000000pt" height="400.000000pt" viewBox="0 0 400.000000 400.000000"
 preserveAspectRatio="xMidYMid meet">
<metadata>
Created by potrace 1.11, written by Peter Selinger 2001-2013
</metadata>
<g transform="translate(0.000000,400.000000) scale(0.100000,-0.100000)"
fill="#000000" stroke="none">
<path d="M3725 3980 c3 -18 2 -20 -10 -10 -12 10 -13 8 -10 -10 3 -18 2 -20
-10 -10 -12 10 -13 8 -10 -10 3 -18 2 -20 -10 -10 -12 10 -13 8 -10 -10 3 -18
2 -20 -10 -10 -12 10 -13 8 -10 -10 3 -18 2 -20 -10 -10 -12 10 -13 8 -10 -10
3 -18 2 -20 -10 -10 -12 10 -13 8 -10 -10 3 -18 2 -20 -10 -10 -12 10 -13 8
-10 -10 3 -18 2 -20 -10 -10 -12 10 -13 8 -10 -10 3 -18 2 -20 -10 -10 -12 10
-13 8 -10 -10 3 -18 2 -20 -10 -10 -12 10 -13 8 -10 -10 3 -18 2 -20 -10 -10
-12 10 -13 8 -10 -10 3 -18 2 -20 -10 -10 -12 10 -13 8 -10 -10 3 -18 2 -20
-10 -10 -12 10 -13 8 -10 -10 3 -18 2 -20 -10 -10 -12 10 -13 8 -10 -10 3 -18
2 -20 -10 -10 -12 10 -13 8 -10 -10 3 -18 2 -20 -10 -10 -12 10 -13 8 -10 -10
3 -18 2 -20 -10 -10 -12 10 -13 8 -10 -10 3 -18 2 -20 -10 -10 -12 10 -13 8
-10 -10 3 -18 2 -20 -10 -10 -12 10 -13 8 -10 -10 3 -18 2 -20 -10 -10 -12 10
-13 8 -10 -10 3 -18 2 -20 -10 -10 -12 10 -13 8 -10 -10 3 -18 2 -20 -10 -10
-12 10 -13 8 -10 -10 3 -18 2 -20 -10 -10 -12 10 -13 8 -10 -10 3 -18 2 -20
-10 -10 -12 10 -13 8 -10 -10 3 -18 2 -20 -10 -10 -12 10 -13 8 -10 -10 3 -18
2 -20 -10 -10 -12 10 -13 8 -10 -10 3 -18 2 -20 -10 -10 -12 10 -13 8 -10 -10
3 -18 2 -20 -10 -10 -12 10 -13 8 -10 -10 3 -18 2 -20 -10 -10 -12 10 -13 8
-10 -10 3 -18 2 -20 -10 -10 -12 10 -13 8 -10 -10 3 -18 2 -20 -10 -10 -12 10
-13 8 -10 -10 3 -18 2 -20 -10 -10 -12 10 -13 8 -10 -10 3 -18 2 -20 -10 -10
-12 10 -13 8 -10 -10 3 -18 2 -20 -10 -10 -12 10 -13 8 -10 -10 3 -18 2 -20
-10 -10 -12 10 -13 8 -10 -10 3 -18 2 -20 -10 -10 -12 10 -13 8 -10 -10 3 -18
2 -20 -10 -10 -12 10 -13 8 -10 -10 3 -18 2 -20 -10 -10 -12 10 -13 8 -10 -10
3 -18 2 -20 -10 -10 -12 10 -13 8 -10 -10 3 -18 2 -20 -10 -10 -12 10 -13 8
-10 -10 3 -18 2 -20 -10 -10 -12 10 -13 8 -10 -10 3 -18 2 -20 -10 -10 -12 10
-13 8 -10 -10 3 -18 2 -20 -10 -10 -12 10 -13 8 -10 -10 3 -18 2 -20 -10 -10
-12 10 -13 8 -10 -10 3 -18 2 -20 -10 -10 -12 10 -13 8 -10 -10 3 -18 2 -20
-10 -10 -12 10 -13 8 -10 -10 3 -18 2 -20 -10 -10 -12 10 -13 8 -10 -10 3 -18
2 -20 -10 -10 -12 10 -13 8 -10 -10 3 -18 2 -20 -10 -10 -12 10 -13 8 -10 -10
3 -18 2 -20 -10 -10 -12 10 -13 8 -10 -10 3 -18 2 -20 -10 -10 -12 10 -13 8
-10 -10 3 -18 2 -20 -10 -10 -12 10 -13 8 -10 -10 3 -18 2 -20 -10 -10 -12 10
-13 8 -10 -10 3 -18 2 -20 -10 -10 -12 10 -13 8 -10 -10 3 -18 2 -20 -10 -10
-12 10 -13 8 -10 -10 3 -18 2 -20 -10 -10 -12 10 -13 8 -10 -10 3 -18 2 -20
-10 -10 -12 10 -13 8 -10 -10 3 -18 2 -20 -10 -10 -12 10 -13 8 -10 -10 3 -18
2 -20 -10 -10 -12 10 -13 8 -10 -10 3 -18 2 -20 -10 -10 -12 10 -13 8 -10 -10
3 -18 2 -20 -10 -10 -12 10 -13 8 -10 -10 3 -18 2 -20 -10 -10 -12 10 -13 8
-10 -10 3 -18 2 -20 -10 -10 -12 10 -13 8 -10 -10 3 -18 2 -20 -10 -10 -12 10
-13 8 -10 -10 3 -18 2 -20 -10 -10 -12 10 -13 8 -10 -10 3 -18 2 -20 -10 -10
-12 10 -13 8 -10 -10 3 -18 2 -20 -10 -10 -12 10 -13 8 -10 -10 3 -18 2 -20
-10 -10 -12 10 -13 8 -10 -10 3 -18 2 -20 -10 -10 -12 10 -13 8 -10 -10 3 -18
2 -20 -10 -10 -12 10 -13 8 -10 -10 3 -18 2 -20 -10 -10 -12 10 -13 8 -10 -10
3 -18 2 -20 -10 -10 -12 10 -13 8 -10 -10 3 -18 2 -20 -10 -10 -12 10 -13 8
-10 -10 3 -18 2 -20 -10 -10 -12 10 -13 8 -10 -10 3 -18 2 -20 -10 -10 -12 10
-13 8 -10 -10 3 -18 2 -20 -10 -10 -12 10 -13 8 -10 -10 3 -18 2 -20 -10 -10
-12 10 -13 8 -10 -10 3 -18 2 -20 -10 -10 -12 10 -13 8 -10 -10 3 -18 2 -20
-10 -10 -12 10 -13 8 -10 -10 3 -18 2 -20 -10 -10 -12 10 -13 8 -10 -10 3 -18
2 -20 -10 -10 -12 10 -13 8 -10 -10 3 -18 2 -20 -10 -10 -12 10 -13 8 -10 -10
3 -18 2 -20 -10 -10 -12 10 -13 8 -10 -10 3 -18 2 -20 -10 -10 -12 10 -13 8
-10 -10 3 -18 2 -20 -10 -10 -12 10 -13 8 -10 -10 3 -18 2 -20 -10 -10 -12 10
-13 8 -10 -10 3 -18 2 -20 -10 -10 -12 10 -13 8 -10 -10 3 -18 2 -20 -10 -10
-12 10 -13 8 -10 -10 3 -18 2 -20 -10 -10 -12 10 -13 8 -10 -10 3 -18 2 -20
-10 -10 -12 10 -13 8 -10 -10 3 -18 2 -20 -10 -10 -12 10 -13 8 -10 -10 3 -18
2 -20 -10 -10 -12 10 -13 8 -10 -10 3 -18 2 -20 -10 -10 -12 10 -13 8 -10 -10
3 -18 2 -20 -10 -10 -12 10 -13 8 -10 -10 3 -18 2 -20 -10 -10 -12 10 -13 8
-10 -10 3 -18 2 -20 -10 -10 -12 10 -13 8 -10 -10 3 -18 2 -20 -10 -10 -12 10
-13 8 -10 -10 3 -18 2 -20 -10 -10 -12 10 -13 8 -10 -10 3 -18 2 -20 -10 -10
-12 10 -13 8 -10 -10 3 -18 2 -20 -10 -10 -12 10 -13 8 -10 -10 3 -18 2 -20
-10 -10 -12 10 -13 8 -10 -10 3 -18 2 -20 -10 -10 -12 10 -13 8 -10 -10 3 -18
2 -20 -10 -10 -12 10 -13 8 -10 -10 3 -18 2 -20 -10 -10 -12 10 -13 8 -10 -10
3 -18 2 -20 -10 -10 -12 10 -13 8 -10 -10 3 -18 2 -20 -10 -10 -12 10 -13 8
-10 -10 3 -18 2 -20 -10 -10 -12 10 -13 8 -10 -10 3 -18 2 -20 -10 -10 -12 10
-13 8 -10 -10 3 -18 2 -20 -10 -10 -12 10 -13 8 -10 -10 3 -18 2 -20 -10 -10
-12 10 -13 8 -10 -10 3 -18 2 -20 -10 -10 -12 10 -13 8 -10 -10 3 -18 2 -20
-10 -10 -12 10 -13 8 -10 -10 3 -18 2 -20 -10 -10 -12 10 -13 8 -10 -10 3 -18
2 -20 -10 -10 -12 10 -13 8 -10 -10 3 -18 2 -20 -10 -10 -12 10 -13 8 -10 -10
3 -18 2 -20 -10 -10 -12 10 -13 8 -10 -10 3 -18 2 -20 -10 -10 -12 10 -13 8
-10 -10 3 -18 2 -20 -10 -10 -12 10 -13 8 -10 -10 3 -18 2 -20 -10 -10 -12 10
-13 8 -10 -10 3 -18 2 -20 -10 -10 -12 10 -13 8 -10 -10 3 -18 2 -20 -10 -10
-12 10 -13 8 -10 -10 3 -18 2 -20 -10 -10 -12 10 -13 8 -10 -10 3 -18 2 -20
-10 -10 -12 10 -13 8 -10 -10 3 -18 2 -20 -10 -10 -12 10 -13 8 -10 -10 3 -18
2 -20 -10 -10 -12 10 -13 8 -10 -10 3 -18 2 -20 -10 -10 -12 10 -13 8 -10 -10
3 -18 2 -20 -10 -10 -12 10 -13 8 -10 -10 3 -18 2 -20 -10 -10 -12 10 -13 8
-10 -10 3 -18 2 -20 -10 -10 -12 10 -13 8 -10 -10 3 -18 2 -20 -10 -10 -12 10
-13 8 -10 -10 3 -18 2 -20 -10 -10 -12 10 -13 8 -10 -10 3 -18 2 -20 -10 -10
-12 10 -13 8 -10 -10 3 -18 2 -20 -10 -10 -12 10 -13 8 -10 -10 3 -18 2 -20
-10 -10 -12 10 -13 8 -10 -10 3 -18 2 -20 -10 -10 -12 10 -13 8 -10 -10 3 -18
2 -20 -10 -10 -12 10 -13 8 -10 -10 3 -18 2 -20 -10 -10 -12 10 -13 8 -10 -10
3 -18 2 -20 -10 -10 -12 10 -13 8 -10 -10 3 -18 2 -20 -10 -10 -12 10 -13 8
-10 -10 3 -18 2 -20 -10 -10 -12 10 -13 8 -10 -10 3 -18 2 -20 -10 -10 -12 10
-13 8 -10 -10 3 -18 2 -20 -10 -10 -12 10 -13 8 -10 -10 3 -18 2 -20 -10 -10
-12 10 -13 8 -10 -10 3 -18 2 -20 -10 -10 -12 10 -13 8 -10 -10 3 -18 2 -20
-10 -10 -12 10 -13 8 -10 -10 3 -18 2 -20 -10 -10 -12 10 -13 8 -10 -10 3 -18
2 -20 -10 -10 -12 10 -13 8 -10 -10 3 -18 2 -20 -10 -10 -12 10 -13 8 -10 -10
3 -18 2 -20 -10 -10 -12 10 -13 8 -10 -10 3 -18 2 -20 -10 -10 -12 10 -13 8
-10 -10 3 -18 2 -20 -10 -10 -12 10 -13 8 -10 -10 3 -18 2 -20 -10 -10 -12 10
-13 8 -10 -10 3 -18 2 -20 -10 -10 -12 10 -13 8 -10 -10 3 -18 2 -20 -10 -10
-12 10 -13 8 -10 -10 3 -18 2 -20 -10 -10 -12 10 -13 8 -10 -10 3 -18 2 -20
-10 -10 -12 10 -13 8 -10 -10 3 -18 2 -20 -10 -10 -12 10 -13 8 -10 -10 3 -18
2 -20 -10 -10 -12 10 -13 8 -10 -10 3 -18 2 -20 -10 -10 -12 10 -13 8 -10 -10
3 -18 2 -20 -10 -10 -12 10 -13 8 -10 -10 3 -18 2 -20 -10 -10 -12 10 -13 8
-10 -10 3 -18 2 -20 -10 -10 -12 10 -13 8 -10 -10 3 -18 2 -20 -10 -10 -12 10
-13 8 -10 -10 3 -18 2 -20 -10 -10 -12 10 -13 8 -10 -10 3 -18 2 -20 -10 -10
-12 10 -13 8 -10 -10 3 -18 2 -20 -10 -10 -12 10 -13 8 -10 -10 3 -18 2 -20
-10 -10 -12 10 -13 8 -10 -10 3 -18 2 -20 -10 -10 -12 10 -13 8 -10 -10 3 -18
2 -20 -10 -10 -12 10 -13 8 -10 -10 3 -18 2 -20 -10 -10 -12 10 -13 8 -10 -10
3 -18 2 -20 -10 -10 -12 10 -13 8 -10 -10 3 -18 2 -20 -10 -10 -12 10 -13 8
-10 -10 3 -18 2 -20 -10 -10 -12 10 -13 8 -10 -10 3 -18 2 -20 -10 -10 -12 10
-13 8 -10 -10 3 -18 2 -20 -10 -10 -12 10 -13 8 -10 -10 3 -18 2 -20 -10 -10
-12 10 -13 8 -10 -10 3 -18 2 -20 -10 -10 -12 10 -13 8 -10 -10 3 -18 2 -20
-10 -10 -12 10 -13 8 -10 -10 3 -18 2 -20 -10 -10 -12 10 -13 8 -10 -10 3 -18
2 -20 -10 -10 -12 10 -13 8 -10 -10 3 -18 2 -20 -10 -10 -12 10 -13 8 -10 -10
3 -18 2 -20 -10 -10 -12 10 -13 8 -10 -10 3 -18 2 -20 -10 -10 -12 10 -13 8
-10 -10 3 -18 2 -20 -10 -10 -12 10 -13 8 -10 -10 3 -18 2 -20 -10 -10 -12 10
-13 8 -10 -10 3 -17 1 -19 -9 -11 -10 9 -13 -16 -15 -129 l-2 -140 2000 0
2001 0 0 2000 0 2000 -131 0 c-101 0 -129 -3 -123 -12 6 -9 3 -9 -9 0 -14 12
-16 11 -12 -8z"/>
</g>
</svg>
